JetBrainsMono-Regular.ufo
<glyph name="four" format="2">
  <advance width="600"/>
  <unicode hex="0034"/>
  <outline>
    <contour>
      <point x="400" y="0" type="line"/>
      <point x="490" y="0" type="line"/>
      <point x="490" y="420" type="line"/>
      <point x="400" y="420" type="line"/>
      <point x="400" y="242" type="line"/>
      <point x="160" y="242" type="line"/>
      <point x="160" y="283" type="line"/>
      <point x="435" y="730" type="line"/>
      <point x="336" y="730" type="line"/>
      <point x="70" y="301" type="line"/>
      <point x="70" y="160" type="line"/>
      <point x="400" y="160" type="line"/>
    </contour>
  </outline>
</glyph>
<glyph name="y" format="2">
  <advance width="600"/>
  <unicode hex="0079"/>
  <anchor x="300" y="0" name="bottom"/>
  <anchor x="300" y="550" name="top"/>
  <outline>
    <contour>
      <point x="179" y="-180" type="line"/>
      <point x="273" y="-180" type="line"/>
      <point x="550" y="550" type="line"/>
      <point x="456" y="550" type="line"/>
      <point x="331" y="210" type="line" smooth="yes"/>
      <point x="322" y="187"/>
      <point x="311" y="151"/>
      <point x="306" y="130" type="curve"/>
      <point x="301" y="151"/>
      <point x="291" y="187"/>
      <point x="282" y="210" type="curve" smooth="yes"/>
      <point x="148" y="550" type="line"/>
      <point x="50" y="550" type="line"/>
      <point x="260" y="34" type="line"/>
    </contour>
  </outline>
</glyph>
<glyph name="braceleft" format="2">
  <advance width="600"/>
  <unicode hex="007B"/>
  <outline>
    <contour>
      <point x="460" y="-110" type="curve" smooth="yes"/>
      <point x="505" y="-110" type="line"/>
      <point x="505" y="-30" type="line"/>
      <point x="460" y="-30" type="line" smooth="yes"/>
      <point x="397" y="-30"/>
      <point x="360" y="-1"/>
      <point x="365" y="56" type="curve" smooth="yes"/>
      <point x="380" y="220" type="line" smooth="yes"/>
      <point x="388" y="306"/>
      <point x="334" y="367"/>
      <point x="250" y="367" type="curve"/>
      <point x="250" y="362" type="line"/>
      <point x="335" y="362"/>
      <point x="388" y="413"/>
      <point x="380" y="500" type="curve" smooth="yes"/>
      <point x="365" y="664" type="line" smooth="yes"/>
      <point x="360" y="721"/>
      <point x="397" y="750"/>
      <point x="460" y="750" type="curve" smooth="yes"/>
      <point x="505" y="750" type="line"/>
      <point x="505" y="830" type="line"/>
      <point x="460" y="830" type="line" smooth="yes"/>
      <point x="342" y="830"/>
      <point x="265" y="769"/>
      <point x="275" y="664" type="curve" smooth="yes"/>
      <point x="290" y="500" type="line" smooth="yes"/>
      <point x="296" y="429"/>
      <point x="277" y="400"/>
      <point x="190" y="400" type="curve" smooth="yes"/>
      <point x="75" y="400" type="line"/>
      <point x="75" y="320" type="line"/>
      <point x="190" y="320" type="line" smooth="yes"/>
      <point x="276" y="320"/>
      <point x="296" y="291"/>
      <point x="290" y="220" type="curve" smooth="yes"/>
      <point x="275" y="56" type="line" smooth="yes"/>
      <point x="265" y="-49"/>
      <point x="342" y="-110"/>
    </contour>
  </outline>
</glyph>
<glyph name="currency" format="2">
  <advance width="600"/>
  <unicode hex="00A4"/>
  <outline>
    <contour>
      <point x="495" y="113" type="line"/>
      <point x="558" y="176" type="line"/>
      <point x="473" y="261" type="line"/>
      <point x="493" y="293"/>
      <point x="505" y="331"/>
      <point x="505" y="373" type="curve" smooth="yes"/>
      <point x="505" y="414"/>
      <point x="494" y="452"/>
      <point x="474" y="484" type="curve"/>
      <point x="557" y="567" type="line"/>
      <point x="496" y="628" type="line"/>
      <point x="412" y="544" type="line"/>
      <point x="381" y="564"/>
      <point x="343" y="575"/>
      <point x="301" y="575" type="curve" smooth="yes"/>
      <point x="261" y="575"/>
      <point x="225" y="565"/>
      <point x="194" y="547" type="curve"/>
      <point x="106" y="635" type="line"/>
      <point x="43" y="572" type="line"/>
      <point x="129" y="486" type="line"/>
      <point x="107" y="454"/>
      <point x="95" y="416"/>
      <point x="95" y="373" type="curve" smooth="yes"/>
      <point x="95" y="331"/>
      <point x="107" y="292"/>
      <point x="128" y="261" type="curve"/>
      <point x="45" y="177" type="line"/>
      <point x="107" y="115" type="line"/>
      <point x="192" y="200" type="line"/>
      <point x="223" y="181"/>
      <point x="260" y="171"/>
      <point x="301" y="171" type="curve" smooth="yes"/>
      <point x="341" y="171"/>
      <point x="378" y="181"/>
      <point x="408" y="200" type="curve"/>
    </contour>
    <contour>
      <point x="301" y="240" type="curve" smooth="yes"/>
      <point x="226" y="240"/>
      <point x="169" y="297"/>
      <point x="169" y="373" type="curve" smooth="yes"/>
      <point x="169" y="449"/>
      <point x="226" y="506"/>
      <point x="301" y="506" type="curve" smooth="yes"/>
      <point x="375" y="506"/>
      <point x="431" y="449"/>
      <point x="431" y="373" type="curve" smooth="yes"/>
      <point x="431" y="297"/>
      <point x="375" y="240"/>
    </contour>
  </outline>
</glyph>
<glyph name="divide" format="2">
  <advance width="600"/>
  <unicode hex="00F7"/>
  <outline>
    <contour>
      <point x="100" y="295" type="line"/>
      <point x="500" y="295" type="line"/>
      <point x="500" y="370" type="line"/>
      <point x="100" y="370" type="line"/>
    </contour>
    <contour>
      <point x="300" y="460" type="curve" smooth="yes"/>
      <point x="350" y="460"/>
      <point x="383" y="490"/>
      <point x="383" y="535" type="curve" smooth="yes"/>
      <point x="383" y="580"/>
      <point x="350" y="610"/>
      <point x="300" y="610" type="curve" smooth="yes"/>
      <point x="250" y="610"/>
      <point x="217" y="580"/>
      <point x="217" y="535" type="curve" smooth="yes"/>
      <point x="217" y="490"/>
      <point x="250" y="460"/>
    </contour>
    <contour>
      <point x="300" y="55" type="curve" smooth="yes"/>
      <point x="350" y="55"/>
      <point x="383" y="85"/>
      <point x="383" y="130" type="curve" smooth="yes"/>
      <point x="383" y="175"/>
      <point x="350" y="205"/>
      <point x="300" y="205" type="curve" smooth="yes"/>
      <point x="250" y="205"/>
      <point x="217" y="175"/>
      <point x="217" y="130" type="curve" smooth="yes"/>
      <point x="217" y="85"/>
      <point x="250" y="55"/>
    </contour>
  </outline>
</glyph>
<glyph name="eogonek" format="2">
  <advance width="600"/>
  <unicode hex="0119"/>
  <anchor x="300" y="550" name="top"/>
  <outline>
    <contour>
      <point x="373" y="-203" type="curve" smooth="yes"/>
      <point x="451" y="-203" type="line"/>
      <point x="451" y="-143" type="line"/>
      <point x="391" y="-143" type="line" smooth="yes"/>
      <point x="357" y="-143"/>
      <point x="336" y="-122"/>
      <point x="336" y="-93" type="curve" smooth="yes"/>
      <point x="336" y="-65"/>
      <point x="355" y="-36"/>
      <point x="400" y="1" type="curve" smooth="yes"/>
      <point x="416" y="14" type="line"/>
      <point x="468" y="39"/>
      <point x="503" y="83"/>
      <point x="510" y="140" type="curve"/>
      <point x="420" y="140" type="line"/>
      <point x="410" y="91"/>
      <point x="369" y="66"/>
      <point x="300" y="66" type="curve" smooth="yes"/>
      <point x="218" y="66"/>
      <point x="176" y="113"/>
      <point x="176" y="200" type="curve" smooth="yes"/>
      <point x="176" y="253" type="line"/>
      <point x="512" y="253" type="line"/>
      <point x="512" y="350" type="line" smooth="yes"/>
      <point x="512" y="477"/>
      <point x="430" y="560"/>
      <point x="300" y="560" type="curve" smooth="yes"/>
      <point x="170" y="560"/>
      <point x="88" y="477"/>
      <point x="88" y="350" type="curve" smooth="yes"/>
      <point x="88" y="200" type="line" smooth="yes"/>
      <point x="88" y="73"/>
      <point x="170" y="-10"/>
      <point x="300" y="-10" type="curve" smooth="yes"/>
      <point x="303" y="-10"/>
      <point x="307" y="-10"/>
      <point x="310" y="-10" type="curve"/>
      <point x="271" y="-45"/>
      <point x="251" y="-80"/>
      <point x="251" y="-110" type="curve" smooth="yes"/>
      <point x="251" y="-164"/>
      <point x="299" y="-203"/>
    </contour>
    <contour>
      <point x="424" y="281" type="line"/>
      <point x="464" y="321" type="line"/>
      <point x="176" y="321" type="line"/>
      <point x="176" y="350" type="line" smooth="yes"/>
      <point x="176" y="437"/>
      <point x="218" y="485"/>
      <point x="300" y="485" type="curve" smooth="yes"/>
      <point x="382" y="485"/>
      <point x="424" y="437"/>
      <point x="424" y="350" type="curve" smooth="yes"/>
    </contour>
  </outline>
</glyph>
<glyph name="Theta" format="2">
  <advance width="600"/>
  <unicode hex="0398"/>
  <outline>
    <contour>
      <point x="300" y="-10" type="curve" smooth="yes"/>
      <point x="431" y="-10"/>
      <point x="512" y="69"/>
      <point x="512" y="200" type="curve" smooth="yes"/>
      <point x="512" y="531" type="line" smooth="yes"/>
      <point x="512" y="661"/>
      <point x="431" y="740"/>
      <point x="300" y="740" type="curve" smooth="yes"/>
      <point x="169" y="740"/>
      <point x="88" y="661"/>
      <point x="88" y="530" type="curve" smooth="yes"/>
      <point x="88" y="200" type="line" smooth="yes"/>
      <point x="88" y="69"/>
      <point x="169" y="-10"/>
    </contour>
    <contour>
      <point x="300" y="71" type="curve" smooth="yes"/>
      <point x="222" y="71"/>
      <point x="178" y="117"/>
      <point x="178" y="200" type="curve" smooth="yes"/>
      <point x="178" y="530" type="line" smooth="yes"/>
      <point x="178" y="613"/>
      <point x="222" y="659"/>
      <point x="300" y="659" type="curve" smooth="yes"/>
      <point x="378" y="659"/>
      <point x="422" y="613"/>
      <point x="422" y="530" type="curve" smooth="yes"/>
      <point x="422" y="200" type="line" smooth="yes"/>
      <point x="422" y="117"/>
      <point x="378" y="71"/>
    </contour>
    <contour>
      <point x="210" y="325" type="line"/>
      <point x="390" y="325" type="line"/>
      <point x="390" y="407" type="line"/>
      <point x="210" y="407" type="line"/>
    </contour>
  </outline>
</glyph>
<glyph name="Lambda" format="2">
  <advance width="600"/>
  <unicode hex="039B"/>
  <outline>
    <contour>
      <point x="50" y="0" type="line"/>
      <point x="142" y="0" type="line"/>
      <point x="264" y="496" type="line" smooth="yes"/>
      <point x="287" y="590"/>
      <point x="300" y="660"/>
      <point x="300" y="660" type="curve"/>
      <point x="300" y="660"/>
      <point x="313" y="590"/>
      <point x="336" y="495" type="curve" smooth="yes"/>
      <point x="459" y="0" type="line"/>
      <point x="550" y="0" type="line"/>
      <point x="361" y="730" type="line"/>
      <point x="240" y="730" type="line"/>
    </contour>
  </outline>
</glyph>
<glyph name="epsilon" format="2">
  <advance width="600"/>
  <unicode hex="03B5"/>
  <outline>
    <contour>
      <point x="326" y="-7" type="line" smooth="yes"/>
      <point x="442" y="-7"/>
      <point x="521" y="46"/>
      <point x="535" y="130" type="curve"/>
      <point x="440" y="130" type="line"/>
      <point x="431" y="96"/>
      <point x="388" y="73"/>
      <point x="326" y="73" type="curve" smooth="yes"/>
      <point x="279" y="73" type="line" smooth="yes"/>
      <point x="215" y="73"/>
      <point x="175" y="105"/>
      <point x="175" y="159" type="curve" smooth="yes"/>
      <point x="175" y="212"/>
      <point x="215" y="246"/>
      <point x="279" y="246" type="curve" smooth="yes"/>
      <point x="390" y="246" type="line"/>
      <point x="390" y="324" type="line"/>
      <point x="277" y="324" type="line" smooth="yes"/>
      <point x="219" y="324"/>
      <point x="183" y="354"/>
      <point x="183" y="401" type="curve" smooth="yes"/>
      <point x="183" y="448"/>
      <point x="220" y="477"/>
      <point x="279" y="477" type="curve" smooth="yes"/>
      <point x="329" y="477" type="line" smooth="yes"/>
      <point x="385" y="477"/>
      <point x="421" y="453"/>
      <point x="428" y="415" type="curve"/>
      <point x="523" y="415" type="line"/>
      <point x="510" y="503"/>
      <point x="438" y="557"/>
      <point x="329" y="557" type="curve" smooth="yes"/>
      <point x="279" y="557" type="line" smooth="yes"/>
      <point x="161" y="557"/>
      <point x="88" y="500"/>
      <point x="88" y="413" type="curve" smooth="yes"/>
      <point x="88" y="342"/>
      <point x="136" y="298"/>
      <point x="215" y="293" type="curve"/>
      <point x="215" y="289" type="line"/>
      <point x="131" y="283"/>
      <point x="80" y="231"/>
      <point x="80" y="152" type="curve" smooth="yes"/>
      <point x="80" y="54"/>
      <point x="156" y="-7"/>
      <point x="279" y="-7" type="curve" smooth="yes"/>
    </contour>
  </outline>
</glyph>
<glyph name="theta" format="2">
  <advance width="600"/>
  <unicode hex="03B8"/>
  <outline>
    <contour>
      <point x="300" y="-10" type="curve" smooth="yes"/>
      <point x="431" y="-10"/>
      <point x="512" y="69"/>
      <point x="512" y="200" type="curve" smooth="yes"/>
      <point x="512" y="521" type="line" smooth="yes"/>
      <point x="512" y="651"/>
      <point x="431" y="730"/>
      <point x="300" y="730" type="curve" smooth="yes"/>
      <point x="169" y="730"/>
      <point x="88" y="651"/>
      <point x="88" y="520" type="curve" smooth="yes"/>
      <point x="88" y="200" type="line" smooth="yes"/>
      <point x="88" y="69"/>
      <point x="169" y="-10"/>
    </contour>
    <contour>
      <point x="300" y="70" type="curve" smooth="yes"/>
      <point x="222" y="70"/>
      <point x="178" y="115"/>
      <point x="178" y="200" type="curve" smooth="yes"/>
      <point x="178" y="325" type="line"/>
      <point x="422" y="325" type="line"/>
      <point x="422" y="200" type="line" smooth="yes"/>
      <point x="422" y="115"/>
      <point x="378" y="70"/>
    </contour>
    <contour>
      <point x="178" y="403" type="line"/>
      <point x="178" y="520" type="line" smooth="yes"/>
      <point x="178" y="605"/>
      <point x="222" y="650"/>
      <point x="300" y="650" type="curve" smooth="yes"/>
      <point x="378" y="650"/>
      <point x="422" y="605"/>
      <point x="422" y="520" type="curve" smooth="yes"/>
      <point x="422" y="403" type="line"/>
    </contour>
  </outline>
</glyph>
<glyph name="phi" format="2">
  <advance width="600"/>
  <unicode hex="03C6"/>
  <outline>
    <contour>
      <point x="259" y="-180" type="line"/>
      <point x="341" y="-180" type="line"/>
      <point x="341" y="0" type="line"/>
      <point x="469" y="0"/>
      <point x="545" y="78"/>
      <point x="545" y="202" type="curve" smooth="yes"/>
      <point x="545" y="390" type="line" smooth="yes"/>
      <point x="545" y="488"/>
      <point x="478" y="550"/>
      <point x="372" y="550" type="curve" smooth="yes"/>
      <point x="264" y="550" type="line"/>
      <point x="264" y="71" type="line"/>
      <point x="184" y="71"/>
      <point x="138" y="120"/>
      <point x="138" y="202" type="curve" smooth="yes"/>
      <point x="138" y="550" type="line"/>
      <point x="55" y="550" type="line"/>
      <point x="55" y="202" type="line" smooth="yes"/>
      <point x="55" y="78"/>
      <point x="131" y="0"/>
      <point x="259" y="0" type="curve"/>
    </contour>
    <contour>
      <point x="336" y="71" type="curve"/>
      <point x="336" y="480" type="line"/>
      <point x="372" y="480" type="line" smooth="yes"/>
      <point x="428" y="480"/>
      <point x="462" y="446"/>
      <point x="462" y="390" type="curve" smooth="yes"/>
      <point x="462" y="202" type="line" smooth="yes"/>
      <point x="462" y="120"/>
      <point x="415" y="71"/>
    </contour>
  </outline>
</glyph>
<glyph name="ve-cy" format="2">
  <advance width="600"/>
  <unicode hex="0432"/>
  <outline>
    <contour>
      <point x="92" y="0" type="line"/>
      <point x="336" y="0" type="line" smooth="yes"/>
      <point x="452" y="0"/>
      <point x="525" y="60"/>
      <point x="525" y="155" type="curve" smooth="yes"/>
      <point x="525" y="236"/>
      <point x="471" y="290"/>
      <point x="388" y="292" type="curve"/>
      <point x="388" y="296" type="line"/>
      <point x="461" y="299"/>
      <point x="507" y="343"/>
      <point x="507" y="411" type="curve" smooth="yes"/>
      <point x="507" y="496"/>
      <point x="438" y="550"/>
      <point x="328" y="550" type="curve" smooth="yes"/>
      <point x="92" y="550" type="line"/>
    </contour>
    <contour>
      <point x="180" y="79" type="line"/>
      <point x="180" y="246" type="line"/>
      <point x="336" y="246" type="line" smooth="yes"/>
      <point x="399" y="246"/>
      <point x="436" y="215"/>
      <point x="436" y="163" type="curve" smooth="yes"/>
      <point x="436" y="110"/>
      <point x="399" y="79"/>
      <point x="336" y="79" type="curve" smooth="yes"/>
    </contour>
    <contour>
      <point x="180" y="320" type="line"/>
      <point x="180" y="471" type="line"/>
      <point x="328" y="471" type="line" smooth="yes"/>
      <point x="384" y="471"/>
      <point x="418" y="443"/>
      <point x="418" y="396" type="curve" smooth="yes"/>
      <point x="418" y="348"/>
      <point x="384" y="320"/>
      <point x="328" y="320" type="curve" smooth="yes"/>
    </contour>
  </outline>
</glyph>
<glyph name="de-cy" format="2">
  <advance width="600"/>
  <unicode hex="0434"/>
  <outline>
    <contour>
      <point x="30" y="-140" type="line"/>
      <point x="110" y="-140" type="line"/>
      <point x="110" y="0" type="line"/>
      <point x="485" y="0" type="line"/>
      <point x="485" y="-140" type="line"/>
      <point x="565" y="-140" type="line"/>
      <point x="565" y="77" type="line"/>
      <point x="495" y="77" type="line"/>
      <point x="495" y="550" type="line"/>
      <point x="136" y="550" type="line"/>
      <point x="130" y="271" type="line" smooth="yes"/>
      <point x="128" y="168"/>
      <point x="97" y="100"/>
      <point x="75" y="77" type="curve"/>
      <point x="30" y="77" type="line"/>
    </contour>
    <contour>
      <point x="170" y="77" type="line"/>
      <point x="189" y="97"/>
      <point x="215" y="163"/>
      <point x="217" y="269" type="curve" smooth="yes"/>
      <point x="221" y="470" type="line"/>
      <point x="405" y="470" type="line"/>
      <point x="405" y="77" type="line"/>
    </contour>
  </outline>
</glyph>
<glyph name="em-cy" format="2">
  <advance width="600"/>
  <unicode hex="043C"/>
  <outline>
    <contour>
      <point x="76" y="0" type="line"/>
      <point x="162" y="0" type="line"/>
      <point x="162" y="85" type="line" smooth="yes"/>
      <point x="162" y="216"/>
      <point x="154" y="414"/>
      <point x="151" y="505" type="curve"/>
      <point x="256" y="165" type="line"/>
      <point x="347" y="165" type="line"/>
      <point x="451" y="510" type="line"/>
      <point x="447" y="412"/>
      <point x="438" y="205"/>
      <point x="438" y="85" type="curve" smooth="yes"/>
      <point x="438" y="0" type="line"/>
      <point x="524" y="0" type="line"/>
      <point x="524" y="550" type="line"/>
      <point x="402" y="550" type="line"/>
      <point x="334" y="340" type="line" smooth="yes"/>
      <point x="320" y="296"/>
      <point x="308" y="250"/>
      <point x="303" y="227" type="curve"/>
      <point x="297" y="250"/>
      <point x="285" y="296"/>
      <point x="270" y="339" type="curve" smooth="yes"/>
      <point x="198" y="550" type="line"/>
      <point x="76" y="550" type="line"/>
    </contour>
  </outline>
</glyph>
<glyph name="sha-cy" format="2">
  <advance width="600"/>
  <unicode hex="0448"/>
  <outline>
    <contour>
      <point x="62" y="0" type="line"/>
      <point x="540" y="0" type="line"/>
      <point x="540" y="550" type="line"/>
      <point x="457" y="550" type="line"/>
      <point x="457" y="76" type="line"/>
      <point x="337" y="76" type="line"/>
      <point x="337" y="550" type="line"/>
      <point x="265" y="550" type="line"/>
      <point x="265" y="76" type="line"/>
      <point x="144" y="76" type="line"/>
      <point x="144" y="550" type="line"/>
      <point x="60" y="550" type="line"/>
    </contour>
  </outline>
</glyph>
<glyph name="softsign-cy" format="2">
  <advance width="600"/>
  <unicode hex="044C"/>
  <outline>
    <contour>
      <point x="98" y="0" type="line"/>
      <point x="345" y="0" type="line" smooth="yes"/>
      <point x="468" y="0"/>
      <point x="545" y="67"/>
      <point x="545" y="174" type="curve" smooth="yes"/>
      <point x="545" y="282"/>
      <point x="469" y="348"/>
      <point x="345" y="348" type="curve" smooth="yes"/>
      <point x="188" y="348" type="line"/>
      <point x="188" y="550" type="line"/>
      <point x="98" y="550" type="line"/>
    </contour>
    <contour>
      <point x="188" y="82" type="line"/>
      <point x="188" y="266" type="line"/>
      <point x="345" y="266" type="line" smooth="yes"/>
      <point x="414" y="266"/>
      <point x="452" y="234"/>
      <point x="452" y="174" type="curve" smooth="yes"/>
      <point x="452" y="114"/>
      <point x="414" y="82"/>
      <point x="345" y="82" type="curve" smooth="yes"/>
    </contour>
  </outline>
</glyph>
<glyph name="endescender-cy" format="2">
  <advance width="600"/>
  <unicode hex="04A3"/>
  <anchor x="506" y="0" name="stick-cy"/>
  <outline>
    <contour>
      <point x="91" y="0" type="line"/>
      <point x="181" y="0" type="line"/>
      <point x="181" y="239" type="line"/>
      <point x="413" y="239" type="line"/>
      <point x="413" y="0" type="line"/>
      <point x="503" y="0" type="line"/>
      <point x="503" y="550" type="line"/>
      <point x="413" y="550" type="line"/>
      <point x="413" y="321" type="line"/>
      <point x="181" y="321" type="line"/>
      <point x="181" y="550" type="line"/>
      <point x="91" y="550" type="line"/>
    </contour>
    <contour>
      <point x="470" y="-140" type="line"/>
      <point x="550" y="-140" type="line"/>
      <point x="550" y="80" type="line"/>
      <point x="470" y="80" type="line"/>
    </contour>
  </outline>
</glyph>
<glyph name="emdash" format="2">
  <advance width="600"/>
  <unicode hex="2014"/>
  <outline>
    <contour>
      <point x="0" y="290" type="line"/>
      <point x="600" y="290" type="line"/>
      <point x="600" y="370" type="line"/>
      <point x="0" y="370" type="line"/>
    </contour>
  </outline>
</glyph>
<glyph name="quotesinglbase" format="2">
  <advance width="600"/>
  <unicode hex="201A"/>
  <outline>
    <contour>
      <point x="219" y="-160" type="curve"/>
      <point x="310" y="-160" type="line"/>
      <point x="366" y="-62"/>
      <point x="380" y="-22"/>
      <point x="380" y="24" type="curve" smooth="yes"/>
      <point x="380" y="107"/>
      <point x="322" y="159"/>
      <point x="229" y="159" type="curve" smooth="yes"/>
      <point x="205" y="159" type="line"/>
      <point x="205" y="81" type="line"/>
      <point x="224" y="81" type="line" smooth="yes"/>
      <point x="268" y="81"/>
      <point x="295" y="57"/>
      <point x="295" y="18" type="curve" smooth="yes"/>
      <point x="295" y="-19"/>
      <point x="281" y="-48"/>
    </contour>
  </outline>
</glyph>
<glyph name="eightsuperior" format="2">
  <advance width="600"/>
  <unicode hex="2078"/>
  <outline>
    <contour>
      <point x="300" y="395" type="curve" smooth="yes"/>
      <point x="392" y="395"/>
      <point x="450" y="440"/>
      <point x="450" y="511" type="curve" smooth="yes"/>
      <point x="450" y="561"/>
      <point x="412" y="607"/>
      <point x="351" y="631" type="curve" smooth="yes"/>
      <point x="277" y="660" type="line" smooth="yes"/>
      <point x="247" y="672"/>
      <point x="228" y="696"/>
      <point x="228" y="721" type="curve" smooth="yes"/>
      <point x="228" y="757"/>
      <point x="255" y="780"/>
      <point x="299" y="780" type="curve" smooth="yes"/>
      <point x="344" y="780"/>
      <point x="373" y="758"/>
      <point x="373" y="722" type="curve" smooth="yes"/>
      <point x="373" y="695"/>
      <point x="356" y="671"/>
      <point x="328" y="660" type="curve" smooth="yes"/>
      <point x="250" y="629" type="line" smooth="yes"/>
      <point x="189" y="605"/>
      <point x="150" y="559"/>
      <point x="150" y="511" type="curve" smooth="yes"/>
      <point x="150" y="440"/>
      <point x="208" y="395"/>
    </contour>
    <contour>
      <point x="300" y="457" type="curve" smooth="yes"/>
      <point x="251" y="457"/>
      <point x="220" y="481"/>
      <point x="220" y="520" type="curve" smooth="yes"/>
      <point x="220" y="549"/>
      <point x="237" y="574"/>
      <point x="265" y="586" type="curve" smooth="yes"/>
      <point x="342" y="618" type="line" smooth="yes"/>
      <point x="404" y="644"/>
      <point x="443" y="688"/>
      <point x="443" y="733" type="curve" smooth="yes"/>
      <point x="443" y="799"/>
      <point x="388" y="840"/>
      <point x="300" y="840" type="curve" smooth="yes"/>
      <point x="213" y="840"/>
      <point x="158" y="799"/>
      <point x="158" y="733" type="curve" smooth="yes"/>
      <point x="158" y="689"/>
      <point x="197" y="644"/>
      <point x="260" y="617" type="curve" smooth="yes"/>
      <point x="333" y="586" type="line" smooth="yes"/>
      <point x="362" y="574"/>
      <point x="380" y="548"/>
      <point x="380" y="519" type="curve" smooth="yes"/>
      <point x="380" y="481"/>
      <point x="349" y="457"/>
    </contour>
  </outline>
</glyph>
<glyph name="summation" format="2">
  <advance width="600"/>
  <unicode hex="2211"/>
  <outline>
    <contour>
      <point x="55" y="-180" type="line"/>
      <point x="540" y="-180" type="line"/>
      <point x="540" y="-98" type="line"/>
      <point x="163" y="-98" type="line"/>
      <point x="439" y="275" type="line"/>
      <point x="165" y="648" type="line"/>
      <point x="540" y="648" type="line"/>
      <point x="540" y="730" type="line"/>
      <point x="55" y="730" type="line"/>
      <point x="55" y="648" type="line"/>
      <point x="330" y="275" type="line"/>
      <point x="55" y="-98" type="line"/>
    </contour>
  </outline>
</glyph>
<glyph name="doesnotdivide" format="2">
  <advance width="600"/>
  <unicode hex="2224"/>
  <outline>
    <contour>
      <point x="125" y="140" type="line"/>
      <point x="195" y="140" type="line"/>
      <point x="475" y="590" type="line"/>
      <point x="405" y="590" type="line"/>
    </contour>
    <component base="divides"/>
  </outline>
</glyph>
<glyph name="colonequals" format="2">
  <advance width="600"/>
  <unicode hex="2254"/>
  <outline>
    <contour>
      <point x="250" y="410" type="line"/>
      <point x="600" y="410" type="line"/>
      <point x="600" y="490" type="line"/>
      <point x="250" y="490" type="line"/>
    </contour>
    <contour>
      <point x="80" y="100" type="curve" smooth="yes"/>
      <point x="128" y="100"/>
      <point x="160" y="132"/>
      <point x="160" y="180" type="curve" smooth="yes"/>
      <point x="160" y="229"/>
      <point x="128" y="260"/>
      <point x="80" y="260" type="curve" smooth="yes"/>
      <point x="32" y="260"/>
      <point x="0" y="229"/>
      <point x="0" y="180" type="curve" smooth="yes"/>
      <point x="0" y="132"/>
      <point x="32" y="100"/>
    </contour>
    <contour>
      <point x="80" y="400" type="curve" smooth="yes"/>
      <point x="128" y="400"/>
      <point x="160" y="431"/>
      <point x="160" y="480" type="curve" smooth="yes"/>
      <point x="160" y="528"/>
      <point x="128" y="560"/>
      <point x="80" y="560" type="curve" smooth="yes"/>
      <point x="32" y="560"/>
      <point x="0" y="528"/>
      <point x="0" y="480" type="curve" smooth="yes"/>
      <point x="0" y="431"/>
      <point x="32" y="400"/>
    </contour>
    <contour>
      <point x="250" y="170" type="line"/>
      <point x="600" y="170" type="line"/>
      <point x="600" y="250" type="line"/>
      <point x="250" y="250" type="line"/>
    </contour>
  </outline>
</glyph>
<glyph name="questionedequalto" format="2">
  <advance width="600"/>
  <unicode hex="225F"/>
  <outline>
    <contour>
      <point x="255" y="545" type="line"/>
      <point x="310" y="545" type="line"/>
      <point x="310" y="580" type="line"/>
      <point x="329" y="580" type="line" smooth="yes"/>
      <point x="397" y="580"/>
      <point x="441" y="620"/>
      <point x="441" y="683" type="curve" smooth="yes"/>
      <point x="441" y="749"/>
      <point x="397" y="791"/>
      <point x="329" y="791" type="curve" smooth="yes"/>
      <point x="194" y="791" type="line"/>
      <point x="194" y="736" type="line"/>
      <point x="328" y="736" type="line" smooth="yes"/>
      <point x="360" y="736"/>
      <point x="381" y="715"/>
      <point x="381" y="683" type="curve" smooth="yes"/>
      <point x="381" y="651"/>
      <point x="360" y="630"/>
      <point x="328" y="630" type="curve" smooth="yes"/>
      <point x="255" y="630" type="line"/>
    </contour>
    <contour>
      <point x="85" y="76" type="line"/>
      <point x="515" y="76" type="line"/>
      <point x="515" y="152" type="line"/>
      <point x="85" y="152" type="line"/>
    </contour>
    <contour>
      <point x="85" y="292" type="line"/>
      <point x="515" y="292" type="line"/>
      <point x="515" y="368" type="line"/>
      <point x="85" y="368" type="line"/>
    </contour>
    <contour>
      <point x="282" y="430" type="curve" smooth="yes"/>
      <point x="306" y="430"/>
      <point x="321" y="444"/>
      <point x="321" y="466" type="curve" smooth="yes"/>
      <point x="321" y="488"/>
      <point x="306" y="502"/>
      <point x="282" y="502" type="curve" smooth="yes"/>
      <point x="258" y="502"/>
      <point x="243" y="488"/>
      <point x="243" y="466" type="curve" smooth="yes"/>
      <point x="243" y="444"/>
      <point x="258" y="430"/>
    </contour>
  </outline>
</glyph>
<glyph name="notlessnorequal" format="2">
  <advance width="600"/>
  <unicode hex="2270"/>
  <outline>
    <contour>
      <point x="85" y="0" type="line"/>
      <point x="515" y="0" type="line"/>
      <point x="515" y="82" type="line"/>
      <point x="85" y="82" type="line"/>
    </contour>
    <contour>
      <point x="120" y="-110" type="line"/>
      <point x="183" y="-110" type="line"/>
      <point x="480" y="780" type="line"/>
      <point x="417" y="780" type="line"/>
    </contour>
    <component base="less" yOffset="125"/>
  </outline>
</glyph>
<glyph name="boxLightUp" format="2">
  <advance width="600"/>
  <unicode hex="2575"/>
  <outline>
    <contour>
      <point x="250" y="320" type="line"/>
      <point x="350" y="320" type="line"/>
      <point x="350" y="1120" type="line"/>
      <point x="250" y="1120" type="line"/>
    </contour>
  </outline>
</glyph>
<glyph name="blackSmallSquare" format="2">
  <advance width="600"/>
  <unicode hex="25AA"/>
  <outline>
    <contour>
      <point x="150" y="210" type="line"/>
      <point x="450" y="210" type="line"/>
      <point x="450" y="510" type="line"/>
      <point x="150" y="510" type="line"/>
    </contour>
  </outline>
</glyph>
<glyph name="whiteSmallSquare" format="2">
  <advance width="600"/>
  <unicode hex="25AB"/>
  <outline>
    <contour>
      <point x="150" y="210" type="line"/>
      <point x="450" y="210" type="line"/>
      <point x="450" y="510" type="line"/>
      <point x="150" y="510" type="line"/>
    </contour>
    <contour>
      <point x="200" y="260" type="line"/>
      <point x="200" y="460" type="line"/>
      <point x="400" y="460" type="line"/>
      <point x="400" y="260" type="line"/>
    </contour>
  </outline>
</glyph>
<glyph name="downWhiteSmallTriangle" format="2">
  <advance width="600"/>
  <unicode hex="25BF"/>
  <outline>
    <contour>
      <point x="300" y="200" type="line"/>
      <point x="450" y="510" type="line"/>
      <point x="150" y="510" type="line"/>
    </contour>
    <contour>
      <point x="300" y="292" type="line"/>
      <point x="214" y="470" type="line"/>
      <point x="386" y="470" type="line"/>
    </contour>
  </outline>
</glyph>
<glyph name="sharp-musical" format="2">
  <advance width="600"/>
  <unicode hex="266F"/>
  <outline>
    <contour>
      <point x="65" y="336" type="line"/>
      <point x="535" y="583" type="line"/>
      <point x="535" y="664" type="line"/>
      <point x="65" y="416" type="line"/>
    </contour>
    <contour>
      <point x="183" y="0" type="line"/>
      <point x="226" y="0" type="line"/>
      <point x="226" y="640" type="line"/>
      <point x="183" y="640" type="line"/>
    </contour>
    <contour>
      <point x="65" y="80" type="line"/>
      <point x="535" y="327" type="line"/>
      <point x="535" y="408" type="line"/>
      <point x="65" y="160" type="line"/>
    </contour>
    <contour>
      <point x="381" y="90" type="line"/>
      <point x="424" y="90" type="line"/>
      <point x="424" y="730" type="line"/>
      <point x="381" y="730" type="line"/>
    </contour>
  </outline>
</glyph>
<glyph name="B.half" format="2">
  <advance width="400"/>
  <outline>
    <contour>
      <point x="45" y="0" type="line"/>
      <point x="254" y="0" type="line" smooth="yes"/>
      <point x="323" y="0"/>
      <point x="370" y="38"/>
      <point x="370" y="93" type="curve" smooth="yes"/>
      <point x="370" y="146"/>
      <point x="323" y="181"/>
      <point x="251" y="179" type="curve"/>
      <point x="251" y="168" type="line"/>
      <point x="313" y="166"/>
      <point x="353" y="200"/>
      <point x="353" y="251" type="curve" smooth="yes"/>
      <point x="353" y="301"/>
      <point x="307" y="335"/>
      <point x="239" y="335" type="curve" smooth="yes"/>
      <point x="45" y="335" type="line"/>
    </contour>
    <contour>
      <point x="111" y="58" type="line"/>
      <point x="111" y="144" type="line"/>
      <point x="251" y="144" type="line" smooth="yes"/>
      <point x="282" y="144"/>
      <point x="303" y="127"/>
      <point x="303" y="102" type="curve" smooth="yes"/>
      <point x="303" y="77"/>
      <point x="282" y="58"/>
      <point x="251" y="58" type="curve" smooth="yes"/>
    </contour>
    <contour>
      <point x="111" y="191" type="line"/>
      <point x="111" y="277" type="line"/>
      <point x="241" y="277" type="line" smooth="yes"/>
      <point x="268" y="277"/>
      <point x="286" y="258"/>
      <point x="286" y="233" type="curve" smooth="yes"/>
      <point x="286" y="208"/>
      <point x="267" y="191"/>
      <point x="240" y="191" type="curve" smooth="yes"/>
    </contour>
  </outline>
</glyph>
<glyph name="S.half" format="2">
  <advance width="400"/>
  <outline>
    <contour>
      <point x="188" y="-4" type="curve" smooth="yes"/>
      <point x="213" y="-4" type="line" smooth="yes"/>
      <point x="303" y="-4"/>
      <point x="359" y="37"/>
      <point x="359" y="102" type="curve" smooth="yes"/>
      <point x="359" y="153"/>
      <point x="317" y="190"/>
      <point x="249" y="198" type="curve" smooth="yes"/>
      <point x="161" y="208" type="line" smooth="yes"/>
      <point x="131" y="211"/>
      <point x="112" y="225"/>
      <point x="112" y="245" type="curve" smooth="yes"/>
      <point x="112" y="267"/>
      <point x="139" y="281"/>
      <point x="183" y="281" type="curve" smooth="yes"/>
      <point x="208" y="281" type="line" smooth="yes"/>
      <point x="252" y="281"/>
      <point x="283" y="267"/>
      <point x="288" y="244" type="curve"/>
      <point x="354" y="244" type="line"/>
      <point x="345" y="302"/>
      <point x="289" y="339"/>
      <point x="208" y="339" type="curve" smooth="yes"/>
      <point x="183" y="339" type="line" smooth="yes"/>
      <point x="99" y="339"/>
      <point x="46" y="301"/>
      <point x="46" y="241" type="curve" smooth="yes"/>
      <point x="46" y="191"/>
      <point x="87" y="156"/>
      <point x="152" y="149" type="curve" smooth="yes"/>
      <point x="240" y="139" type="line" smooth="yes"/>
      <point x="273" y="135"/>
      <point x="293" y="119"/>
      <point x="293" y="98" type="curve" smooth="yes"/>
      <point x="293" y="71"/>
      <point x="262" y="54"/>
      <point x="213" y="54" type="curve" smooth="yes"/>
      <point x="188" y="54" type="line" smooth="yes"/>
      <point x="140" y="54"/>
      <point x="107" y="73"/>
      <point x="103" y="103" type="curve"/>
      <point x="37" y="103" type="line"/>
      <point x="44" y="37"/>
      <point x="102" y="-4"/>
    </contour>
  </outline>
</glyph>
<glyph name="braceleft_braceleft_hyphen_hyphen.liga" format="2">
  <advance width="600"/>
  <outline>
    <contour>
      <point x="-920" y="290" type="line"/>
      <point x="515" y="290" type="line"/>
      <point x="515" y="370" type="line"/>
      <point x="-920" y="370" type="line"/>
    </contour>
    <component base="braceleft" xOffset="-1740" yOffset="-30"/>
    <component base="braceleft" xOffset="-1207" yOffset="-30"/>
  </outline>
</glyph>
<glyph name="commaturnedabovecomb.case" format="2">
  <anchor x="-300" y="730" name="_top"/>
  <anchor x="-295" y="1020" name="top"/>
  <outline>
    <contour>
      <point x="-200" y="1020" type="line"/>
      <point x="-275" y="1020" type="line"/>
      <point x="-390" y="810" type="line"/>
      <point x="-265" y="810" type="line"/>
    </contour>
  </outline>
</glyph>
<glyph name="dollar_greater.liga" format="2">
  <advance width="600"/>
  <outline>
    <contour>
      <point x="-290" y="-140" type="line"/>
      <point x="-230" y="-140" type="line"/>
      <point x="-230" y="-9" type="line"/>
      <point x="-113" y="3"/>
      <point x="-37" y="80"/>
      <point x="-37" y="190" type="curve" smooth="yes"/>
      <point x="-37" y="289"/>
      <point x="-93" y="366"/>
      <point x="-190" y="397" type="curve" smooth="yes"/>
      <point x="-230" y="410" type="line"/>
      <point x="-230" y="658" type="line"/>
      <point x="-197" y="655"/>
      <point x="-165" y="643"/>
      <point x="-114" y="616" type="curve" smooth="yes"/>
      <point x="385" y="352" type="line" smooth="yes"/>
      <point x="408" y="340"/>
      <point x="432" y="333"/>
      <point x="444" y="331" type="curve"/>
      <point x="433" y="328"/>
      <point x="410" y="319"/>
      <point x="385" y="306" type="curve" smooth="yes"/>
      <point x="90" y="155" type="line"/>
      <point x="90" y="65" type="line"/>
      <point x="505" y="280" type="line"/>
      <point x="505" y="380" type="line"/>
      <point x="-85" y="690" type="line" smooth="yes"/>
      <point x="-135" y="716"/>
      <point x="-187" y="733"/>
      <point x="-230" y="738" type="curve"/>
      <point x="-230" y="870" type="line"/>
      <point x="-290" y="870" type="line"/>
      <point x="-290" y="738" type="line"/>
      <point x="-402" y="727"/>
      <point x="-473" y="653"/>
      <point x="-473" y="546" type="curve" smooth="yes"/>
      <point x="-473" y="448"/>
      <point x="-417" y="373"/>
      <point x="-317" y="342" type="curve" smooth="yes"/>
      <point x="-290" y="334" type="line"/>
      <point x="-290" y="72" type="line"/>
      <point x="-362" y="81"/>
      <point x="-403" y="124"/>
      <point x="-403" y="190" type="curve"/>
      <point x="-493" y="190" type="line"/>
      <point x="-491" y="75"/>
      <point x="-416" y="1"/>
      <point x="-290" y="-9" type="curve"/>
    </contour>
    <contour>
      <point x="-230" y="72" type="curve"/>
      <point x="-230" y="315" type="line"/>
      <point x="-218" y="311" type="line" smooth="yes"/>
      <point x="-160" y="293"/>
      <point x="-127" y="246"/>
      <point x="-127" y="188" type="curve" smooth="yes"/>
      <point x="-127" y="124"/>
      <point x="-165" y="82"/>
    </contour>
    <contour>
      <point x="-290" y="389" type="line"/>
      <point x="-259" y="422" type="line"/>
      <point x="-339" y="434"/>
      <point x="-383" y="484"/>
      <point x="-383" y="554" type="curve" smooth="yes"/>
      <point x="-383" y="611"/>
      <point x="-349" y="649"/>
      <point x="-290" y="658" type="curve"/>
    </contour>
  </outline>
</glyph>
<glyph name="equal_less_less.liga" format="2">
  <advance width="600"/>
  <outline>
    <contour>
      <point x="114" y="35" type="line"/>
      <point x="220" y="35" type="line"/>
      <point x="34" y="270" type="line"/>
      <point x="-16" y="331" type="line"/>
      <point x="30" y="386" type="line"/>
      <point x="220" y="625" type="line"/>
      <point x="115" y="625" type="line"/>
      <point x="9" y="490" type="line"/>
      <point x="-1115" y="490" type="line"/>
      <point x="-1115" y="410" type="line"/>
      <point x="-54" y="410" type="line"/>
      <point x="-117" y="330" type="line"/>
      <point x="-54" y="250" type="line"/>
      <point x="-1115" y="250" type="line"/>
      <point x="-1115" y="170" type="line"/>
      <point x="8" y="170" type="line"/>
    </contour>
    <contour>
      <point x="394" y="35" type="line"/>
      <point x="500" y="35" type="line"/>
      <point x="314" y="270" type="line"/>
      <point x="264" y="331" type="line"/>
      <point x="310" y="386" type="line"/>
      <point x="500" y="625" type="line"/>
      <point x="395" y="625" type="line"/>
      <point x="163" y="330" type="line"/>
    </contour>
  </outline>
</glyph>
<glyph name="greater_equal.liga" format="2">
  <advance width="600"/>
  <outline>
    <contour>
      <point x="-305" y="150" type="line"/>
      <point x="305" y="375" type="line"/>
      <point x="305" y="475" type="line"/>
      <point x="-305" y="700" type="line"/>
      <point x="-305" y="612" type="line"/>
      <point x="185" y="441" type="line" smooth="yes"/>
      <point x="208" y="433"/>
      <point x="230" y="429"/>
      <point x="240" y="428" type="curve"/>
      <point x="240" y="421" type="line"/>
      <point x="230" y="420"/>
      <point x="208" y="416"/>
      <point x="185" y="408" type="curve" smooth="yes"/>
      <point x="-305" y="240" type="line"/>
    </contour>
    <contour>
      <point x="-305" y="-74" type="line"/>
      <point x="305" y="151" type="line"/>
      <point x="305" y="241" type="line"/>
      <point x="-305" y="16" type="line"/>
    </contour>
  </outline>
</glyph>
<glyph name="hyphen_less.liga" format="2">
  <advance width="600"/>
  <outline>
    <contour>
      <point x="394" y="35" type="line"/>
      <point x="500" y="35" type="line"/>
      <point x="314" y="270" type="line"/>
      <point x="264" y="331" type="line"/>
      <point x="310" y="386" type="line"/>
      <point x="500" y="625" type="line"/>
      <point x="395" y="625" type="line"/>
      <point x="194" y="370" type="line"/>
      <point x="-515" y="370" type="line"/>
      <point x="-515" y="290" type="line"/>
      <point x="194" y="290" type="line"/>
    </contour>
  </outline>
</glyph>
<glyph name="macronbelowcomb.case" format="2">
  <anchor x="-300" y="0" name="_bottom"/>
  <anchor x="-300" y="-195" name="bottom"/>
  <outline>
    <contour>
      <point x="-460" y="-195" type="line"/>
      <point x="-140" y="-195" type="line"/>
      <point x="-140" y="-120" type="line"/>
      <point x="-460" y="-120" type="line"/>
    </contour>
  </outline>
</glyph>
<glyph name="three.half" format="2">
  <advance width="400"/>
  <outline>
    <contour>
      <point x="184" y="-5" type="curve" smooth="yes"/>
      <point x="272" y="-5"/>
      <point x="333" y="43"/>
      <point x="333" y="110" type="curve" smooth="yes"/>
      <point x="333" y="174"/>
      <point x="273" y="217"/>
      <point x="188" y="217" type="curve"/>
      <point x="188" y="185" type="line"/>
      <point x="305" y="265" type="line"/>
      <point x="305" y="335" type="line"/>
      <point x="55" y="335" type="line"/>
      <point x="55" y="275" type="line"/>
      <point x="241" y="275" type="line"/>
      <point x="155" y="218" type="line"/>
      <point x="155" y="165" type="line"/>
      <point x="185" y="165" type="line" smooth="yes"/>
      <point x="234" y="165"/>
      <point x="267" y="143"/>
      <point x="267" y="110" type="curve" smooth="yes"/>
      <point x="267" y="77"/>
      <point x="233" y="53"/>
      <point x="184" y="53" type="curve" smooth="yes"/>
      <point x="135" y="53"/>
      <point x="102" y="83"/>
      <point x="102" y="127" type="curve"/>
      <point x="36" y="127" type="line"/>
      <point x="36" y="49"/>
      <point x="96" y="-5"/>
    </contour>
  </outline>
</glyph>
<glyph name="tildecomb.case" format="2">
  <anchor x="-300" y="730" name="_top"/>
  <anchor x="-300" y="945" name="top"/>
  <outline>
    <contour>
      <point x="-230" y="815" type="curve" smooth="yes"/>
      <point x="-176" y="815"/>
      <point x="-140" y="850"/>
      <point x="-140" y="910" type="curve" smooth="yes"/>
      <point x="-140" y="940" type="line"/>
      <point x="-205" y="940" type="line"/>
      <point x="-205" y="910" type="line" smooth="yes"/>
      <point x="-205" y="886"/>
      <point x="-217" y="875"/>
      <point x="-235" y="875" type="curve" smooth="yes"/>
      <point x="-280" y="875"/>
      <point x="-290" y="945"/>
      <point x="-370" y="945" type="curve" smooth="yes"/>
      <point x="-424" y="945"/>
      <point x="-460" y="910"/>
      <point x="-460" y="850" type="curve" smooth="yes"/>
      <point x="-460" y="820" type="line"/>
      <point x="-395" y="820" type="line"/>
      <point x="-395" y="850" type="line" smooth="yes"/>
      <point x="-395" y="874"/>
      <point x="-383" y="885"/>
      <point x="-365" y="885" type="curve" smooth="yes"/>
      <point x="-320" y="885"/>
      <point x="-310" y="815"/>
    </contour>
  </outline>
</glyph>
